<svg id="visual" viewBox="0 0 900 600" width="900" height="600" xmlns="http://www.w3.org/2000/svg" xmlns:xlink="http://www.w3.org/1999/xlink" version="1.1"><g stroke-width="2" stroke-linejoin="bevel"><path d="M454 267.7L486.3 278.7L499.3 239.2Z" fill="#001e35" stroke="#002b50"></path><path d="M499.3 239.2L464 230.2L454 267.7Z" fill="#01376c" stroke="#002b50"></path><path d="M486.3 278.7L547.5 265.7L499.3 239.2Z" fill="#294fa6" stroke="#002b50"></path><path d="M461 346.3L514.3 318.3L486.3 278.7Z" fill="#001e35" stroke="#002b50"></path><path d="M486.3 278.7L514.3 318.3L547.5 265.7Z" fill="#002442" stroke="#002b50"></path><path d="M488.3 160.6L436 185.6L464 230.2Z" fill="#002442" stroke="#002b50"></path><path d="M464 230.2L398.8 205.2L454 267.7Z" fill="#002b50" stroke="#002b50"></path><path d="M488.3 160.6L464 230.2L499.3 239.2Z" fill="#002b50" stroke="#002b50"></path><path d="M547.5 265.7L547.5 204.2L499.3 239.2Z" fill="#002442" stroke="#002b50"></path><path d="M436 185.6L398.8 205.2L464 230.2Z" fill="#00315e" stroke="#002b50"></path><path d="M547.5 204.2L488.3 160.6L499.3 239.2Z" fill="#01376c" stroke="#002b50"></path><path d="M388.8 306.3L461 346.3L454 267.7Z" fill="#021828" stroke="#002b50"></path><path d="M454 267.7L461 346.3L486.3 278.7Z" fill="#01376c" stroke="#002b50"></path><path d="M373.8 289.7L388.8 306.3L454 267.7Z" fill="#1d4998" stroke="#002b50"></path><path d="M398.8 205.2L373.8 289.7L454 267.7Z" fill="#00315e" stroke="#002b50"></path><path d="M623.8 204.2L552.5 165.6L547.5 204.2Z" fill="#114389" stroke="#002b50"></path><path d="M547.5 204.2L552.5 165.6L488.3 160.6Z" fill="#002442" stroke="#002b50"></path><path d="M396.8 368.8L461 346.3L388.8 306.3Z" fill="#01376c" stroke="#002b50"></path><path d="M396.8 368.8L445 374.8L461 346.3Z" fill="#073d7b" stroke="#002b50"></path><path d="M461 346.3L523.3 400.8L514.3 318.3Z" fill="#01376c" stroke="#002b50"></path><path d="M514.3 318.3L584.5 324.3L547.5 265.7Z" fill="#294fa6" stroke="#002b50"></path><path d="M547.5 265.7L623.8 204.2L547.5 204.2Z" fill="#1d4998" stroke="#002b50"></path><path d="M556.5 398.8L584.5 324.3L514.3 318.3Z" fill="#021828" stroke="#002b50"></path><path d="M436 185.6L375.8 167.6L398.8 205.2Z" fill="#021828" stroke="#002b50"></path><path d="M398.8 205.2L340.5 278.7L373.8 289.7Z" fill="#01376c" stroke="#002b50"></path><path d="M383.8 129.1L375.8 167.6L436 185.6Z" fill="#073d7b" stroke="#002b50"></path><path d="M319.5 240.2L340.5 278.7L398.8 205.2Z" fill="#073d7b" stroke="#002b50"></path><path d="M373.8 289.7L352.5 321.3L388.8 306.3Z" fill="#01376c" stroke="#002b50"></path><path d="M352.5 321.3L396.8 368.8L388.8 306.3Z" fill="#294fa6" stroke="#002b50"></path><path d="M340.5 278.7L352.5 321.3L373.8 289.7Z" fill="#00101c" stroke="#002b50"></path><path d="M492.3 86.1L444 103.1L488.3 160.6Z" fill="#021828" stroke="#002b50"></path><path d="M488.3 160.6L444 103.1L436 185.6Z" fill="#00101c" stroke="#002b50"></path><path d="M510.3 415.4L523.3 400.8L445 374.8Z" fill="#00315e" stroke="#002b50"></path><path d="M445 374.8L523.3 400.8L461 346.3Z" fill="#002b50" stroke="#002b50"></path><path d="M630.8 274.7L623.8 204.2L547.5 265.7Z" fill="#114389" stroke="#002b50"></path><path d="M544.5 97.1L492.3 86.1L488.3 160.6Z" fill="#073d7b" stroke="#002b50"></path><path d="M617.8 340.3L630.8 274.7L584.5 324.3Z" fill="#1d4998" stroke="#002b50"></path><path d="M584.5 324.3L630.8 274.7L547.5 265.7Z" fill="#294fa6" stroke="#002b50"></path><path d="M444 103.1L383.8 129.1L436 185.6Z" fill="#1d4998" stroke="#002b50"></path><path d="M375.8 167.6L319.5 240.2L398.8 205.2Z" fill="#114389" stroke="#002b50"></path><path d="M331.5 140.6L319.5 240.2L375.8 167.6Z" fill="#001e35" stroke="#002b50"></path><path d="M301.3 369.8L334.5 366.8L352.5 321.3Z" fill="#294fa6" stroke="#002b50"></path><path d="M469 433.4L510.3 415.4L445 374.8Z" fill="#294fa6" stroke="#002b50"></path><path d="M556.5 398.8L514.3 318.3L523.3 400.8Z" fill="#002442" stroke="#002b50"></path><path d="M556.5 398.8L617.8 340.3L584.5 324.3Z" fill="#1d4998" stroke="#002b50"></path><path d="M576.5 430.4L556.5 398.8L523.3 400.8Z" fill="#073d7b" stroke="#002b50"></path><path d="M544.5 97.1L488.3 160.6L552.5 165.6Z" fill="#1d4998" stroke="#002b50"></path><path d="M578.5 75.5L544.5 97.1L552.5 165.6Z" fill="#00315e" stroke="#002b50"></path><path d="M492.3 86.1L447 76.5L444 103.1Z" fill="#294fa6" stroke="#002b50"></path><path d="M444 103.1L380.8 70.5L383.8 129.1Z" fill="#114389" stroke="#002b50"></path><path d="M455 0L447 76.5L492.3 86.1Z" fill="#00101c" stroke="#002b50"></path><path d="M404.8 423.4L469 433.4L445 374.8Z" fill="#01376c" stroke="#002b50"></path><path d="M576.5 430.4L615.8 398.8L556.5 398.8Z" fill="#01376c" stroke="#002b50"></path><path d="M301.3 369.8L352.5 321.3L263.3 334.3Z" fill="#1d4998" stroke="#002b50"></path><path d="M352.5 321.3L334.5 366.8L396.8 368.8Z" fill="#002442" stroke="#002b50"></path><path d="M396.8 368.8L404.8 423.4L445 374.8Z" fill="#01376c" stroke="#002b50"></path><path d="M544.5 97.1L520.3 75.5L492.3 86.1Z" fill="#114389" stroke="#002b50"></path><path d="M319.5 109.1L331.5 140.6L383.8 129.1Z" fill="#114389" stroke="#002b50"></path><path d="M383.8 129.1L331.5 140.6L375.8 167.6Z" fill="#00315e" stroke="#002b50"></path><path d="M617.8 340.3L660 273.7L630.8 274.7Z" fill="#002b50" stroke="#002b50"></path><path d="M630.8 274.7L660 273.7L623.8 204.2Z" fill="#073d7b" stroke="#002b50"></path><path d="M334.5 366.8L404.8 423.4L396.8 368.8Z" fill="#294fa6" stroke="#002b50"></path><path d="M661 147.6L638.8 155.6L623.8 204.2Z" fill="#00101c" stroke="#002b50"></path><path d="M623.8 204.2L638.8 155.6L552.5 165.6Z" fill="#294fa6" stroke="#002b50"></path><path d="M544.5 97.1L578.5 75.5L520.3 75.5Z" fill="#001e35" stroke="#002b50"></path><path d="M331.5 140.6L283.3 213.2L319.5 240.2Z" fill="#114389" stroke="#002b50"></path><path d="M268.3 282.7L352.5 321.3L340.5 278.7Z" fill="#01376c" stroke="#002b50"></path><path d="M576.5 430.4L523.3 400.8L510.3 415.4Z" fill="#294fa6" stroke="#002b50"></path><path d="M556.5 398.8L615.8 398.8L617.8 340.3Z" fill="#01376c" stroke="#002b50"></path><path d="M617.8 340.3L693 317.3L660 273.7Z" fill="#002442" stroke="#002b50"></path><path d="M575.5 504.9L576.5 430.4L510.3 415.4Z" fill="#01376c" stroke="#002b50"></path><path d="M638.8 155.6L578.5 75.5L552.5 165.6Z" fill="#002442" stroke="#002b50"></path><path d="M381.8 0L380.8 70.5L447 76.5Z" fill="#021828" stroke="#002b50"></path><path d="M447 76.5L380.8 70.5L444 103.1Z" fill="#002b50" stroke="#002b50"></path><path d="M455 0L492.3 86.1L510.3 0Z" fill="#114389" stroke="#002b50"></path><path d="M745.3 281.7L684 236.2L660 273.7Z" fill="#294fa6" stroke="#002b50"></path><path d="M660 273.7L684 236.2L623.8 204.2Z" fill="#294fa6" stroke="#002b50"></path><path d="M268.3 282.7L340.5 278.7L319.5 240.2Z" fill="#001e35" stroke="#002b50"></path><path d="M334.5 366.8L339.5 440.4L404.8 423.4Z" fill="#00101c" stroke="#002b50"></path><path d="M283.3 213.2L268.3 282.7L319.5 240.2Z" fill="#00101c" stroke="#002b50"></path><path d="M684 236.2L661 147.6L623.8 204.2Z" fill="#00101c" stroke="#002b50"></path><path d="M638.8 155.6L633.8 93.1L578.5 75.5Z" fill="#01376c" stroke="#002b50"></path><path d="M380.8 70.5L319.5 109.1L383.8 129.1Z" fill="#073d7b" stroke="#002b50"></path><path d="M331.5 140.6L291.3 147.6L283.3 213.2Z" fill="#002b50" stroke="#002b50"></path><path d="M319.5 109.1L291.3 147.6L331.5 140.6Z" fill="#00315e" stroke="#002b50"></path><path d="M283.3 213.2L222 271.7L268.3 282.7Z" fill="#002b50" stroke="#002b50"></path><path d="M652 110.1L633.8 93.1L638.8 155.6Z" fill="#001e35" stroke="#002b50"></path><path d="M661 398.8L693 317.3L617.8 340.3Z" fill="#001e35" stroke="#002b50"></path><path d="M661 147.6L652 110.1L638.8 155.6Z" fill="#021828" stroke="#002b50"></path><path d="M717.3 151.6L652 110.1L661 147.6Z" fill="#1d4998" stroke="#002b50"></path><path d="M404.8 423.4L447 479.9L469 433.4Z" fill="#002442" stroke="#002b50"></path><path d="M469 433.4L495.3 510.9L510.3 415.4Z" fill="#1d4998" stroke="#002b50"></path><path d="M412.8 511.9L447 479.9L404.8 423.4Z" fill="#001e35" stroke="#002b50"></path><path d="M268.3 282.7L263.3 334.3L352.5 321.3Z" fill="#1d4998" stroke="#002b50"></path><path d="M576.5 430.4L630.8 425.4L615.8 398.8Z" fill="#073d7b" stroke="#002b50"></path><path d="M615.8 398.8L661 398.8L617.8 340.3Z" fill="#294fa6" stroke="#002b50"></path><path d="M633.8 497.9L630.8 425.4L576.5 430.4Z" fill="#1d4998" stroke="#002b50"></path><path d="M291.3 425.4L334.5 366.8L301.3 369.8Z" fill="#021828" stroke="#002b50"></path><path d="M291.3 425.4L339.5 440.4L334.5 366.8Z" fill="#002442" stroke="#002b50"></path><path d="M630.8 425.4L661 398.8L615.8 398.8Z" fill="#021828" stroke="#002b50"></path><path d="M317.5 74.5L299.3 99.1L319.5 109.1Z" fill="#073d7b" stroke="#002b50"></path><path d="M319.5 109.1L299.3 99.1L291.3 147.6Z" fill="#001e35" stroke="#002b50"></path><path d="M291.3 147.6L237 169.6L283.3 213.2Z" fill="#073d7b" stroke="#002b50"></path><path d="M380.8 70.5L317.5 74.5L319.5 109.1Z" fill="#1d4998" stroke="#002b50"></path><path d="M652 110.1L636.8 74.5L633.8 93.1Z" fill="#00101c" stroke="#002b50"></path><path d="M633.8 93.1L636.8 74.5L578.5 75.5Z" fill="#00315e" stroke="#002b50"></path><path d="M510.3 0L492.3 86.1L520.3 75.5Z" fill="#1d4998" stroke="#002b50"></path><path d="M745.3 281.7L716.3 200.2L684 236.2Z" fill="#1d4998" stroke="#002b50"></path><path d="M684 236.2L716.3 200.2L661 147.6Z" fill="#021828" stroke="#002b50"></path><path d="M652 110.1L689 34.5L636.8 74.5Z" fill="#073d7b" stroke="#002b50"></path><path d="M218 398.8L291.3 425.4L301.3 369.8Z" fill="#021828" stroke="#002b50"></path><path d="M412.8 511.9L495.3 510.9L447 479.9Z" fill="#002442" stroke="#002b50"></path><path d="M237 107.1L291.3 147.6L299.3 99.1Z" fill="#001e35" stroke="#002b50"></path><path d="M237 107.1L237 169.6L291.3 147.6Z" fill="#002b50" stroke="#002b50"></path><path d="M268.3 282.7L232 342.3L263.3 334.3Z" fill="#002442" stroke="#002b50"></path><path d="M510.3 0L520.3 75.5L575.5 0Z" fill="#001e35" stroke="#002b50"></path><path d="M344.5 0L286.3 62.5L317.5 74.5Z" fill="#021828" stroke="#002b50"></path><path d="M227 198.2L222 271.7L283.3 213.2Z" fill="#00101c" stroke="#002b50"></path><path d="M263.3 334.3L232 342.3L301.3 369.8Z" fill="#001e35" stroke="#002b50"></path><path d="M237 169.6L227 198.2L283.3 213.2Z" fill="#073d7b" stroke="#002b50"></path><path d="M575.5 0L520.3 75.5L578.5 75.5Z" fill="#1d4998" stroke="#002b50"></path><path d="M661 398.8L719.3 341.3L693 317.3Z" fill="#021828" stroke="#002b50"></path><path d="M693 317.3L745.3 281.7L660 273.7Z" fill="#001e35" stroke="#002b50"></path><path d="M412.8 511.9L404.8 423.4L348.5 501.9Z" fill="#00101c" stroke="#002b50"></path><path d="M447 479.9L495.3 510.9L469 433.4Z" fill="#001e35" stroke="#002b50"></path><path d="M222 271.7L232 342.3L268.3 282.7Z" fill="#073d7b" stroke="#002b50"></path><path d="M788.5 161.6L717.3 151.6L716.3 200.2Z" fill="#1d4998" stroke="#002b50"></path><path d="M716.3 200.2L717.3 151.6L661 147.6Z" fill="#00101c" stroke="#002b50"></path><path d="M348.5 501.9L404.8 423.4L339.5 440.4Z" fill="#002442" stroke="#002b50"></path><path d="M344.5 0L317.5 74.5L380.8 70.5Z" fill="#073d7b" stroke="#002b50"></path><path d="M317.5 74.5L286.3 62.5L299.3 99.1Z" fill="#001e35" stroke="#002b50"></path><path d="M495.3 510.9L575.5 504.9L510.3 415.4Z" fill="#00315e" stroke="#002b50"></path><path d="M744.3 419.4L735.3 366.8L661 398.8Z" fill="#294fa6" stroke="#002b50"></path><path d="M661 398.8L735.3 366.8L719.3 341.3Z" fill="#294fa6" stroke="#002b50"></path><path d="M719.3 341.3L745.3 281.7L693 317.3Z" fill="#1d4998" stroke="#002b50"></path><path d="M455 0L381.8 0L447 76.5Z" fill="#002442" stroke="#002b50"></path><path d="M599.8 0L575.5 0L578.5 75.5Z" fill="#002b50" stroke="#002b50"></path><path d="M599.8 0L578.5 75.5L636.8 74.5Z" fill="#294fa6" stroke="#002b50"></path><path d="M287.3 485.9L348.5 501.9L339.5 440.4Z" fill="#00315e" stroke="#002b50"></path><path d="M286.3 62.5L237 107.1L299.3 99.1Z" fill="#002b50" stroke="#002b50"></path><path d="M237 169.6L184.8 199.2L227 198.2Z" fill="#00315e" stroke="#002b50"></path><path d="M667 0L599.8 0L636.8 74.5Z" fill="#01376c" stroke="#002b50"></path><path d="M696 453.4L661 398.8L630.8 425.4Z" fill="#021828" stroke="#002b50"></path><path d="M792.5 323.3L768.5 280.7L745.3 281.7Z" fill="#073d7b" stroke="#002b50"></path><path d="M348.5 501.9L390.8 522.5L412.8 511.9Z" fill="#073d7b" stroke="#002b50"></path><path d="M427 566.5L527.3 561.5L495.3 510.9Z" fill="#01376c" stroke="#002b50"></path><path d="M495.3 510.9L569.5 523.5L575.5 504.9Z" fill="#294fa6" stroke="#002b50"></path><path d="M527.3 561.5L569.5 523.5L495.3 510.9Z" fill="#021828" stroke="#002b50"></path><path d="M575.5 504.9L633.8 497.9L576.5 430.4Z" fill="#114389" stroke="#002b50"></path><path d="M381.8 0L344.5 0L380.8 70.5Z" fill="#001e35" stroke="#002b50"></path><path d="M286.3 62.5L240 59.5L237 107.1Z" fill="#1d4998" stroke="#002b50"></path><path d="M569.5 523.5L633.8 497.9L575.5 504.9Z" fill="#294fa6" stroke="#002b50"></path><path d="M792.5 323.3L745.3 281.7L719.3 341.3Z" fill="#114389" stroke="#002b50"></path><path d="M745.3 281.7L768.5 280.7L716.3 200.2Z" fill="#1d4998" stroke="#002b50"></path><path d="M680 469.9L696 453.4L630.8 425.4Z" fill="#021828" stroke="#002b50"></path><path d="M232 342.3L218 398.8L301.3 369.8Z" fill="#294fa6" stroke="#002b50"></path><path d="M291.3 425.4L287.3 485.9L339.5 440.4Z" fill="#1d4998" stroke="#002b50"></path><path d="M176.8 376.8L218 398.8L232 342.3Z" fill="#002442" stroke="#002b50"></path><path d="M633.8 497.9L680 469.9L630.8 425.4Z" fill="#114389" stroke="#002b50"></path><path d="M170.8 165.6L184.8 199.2L237 169.6Z" fill="#01376c" stroke="#002b50"></path><path d="M227 198.2L177.8 251.7L222 271.7Z" fill="#021828" stroke="#002b50"></path><path d="M222 271.7L186.8 322.3L232 342.3Z" fill="#021828" stroke="#002b50"></path><path d="M177.8 251.7L186.8 322.3L222 271.7Z" fill="#002b50" stroke="#002b50"></path><path d="M184.8 199.2L177.8 251.7L227 198.2Z" fill="#073d7b" stroke="#002b50"></path><path d="M348.5 501.9L358.5 528.5L390.8 522.5Z" fill="#00101c" stroke="#002b50"></path><path d="M427 566.5L495.3 510.9L412.8 511.9Z" fill="#00315e" stroke="#002b50"></path><path d="M296.3 541.5L358.5 528.5L348.5 501.9Z" fill="#002442" stroke="#002b50"></path><path d="M205 438.4L287.3 485.9L291.3 425.4Z" fill="#114389" stroke="#002b50"></path><path d="M747.3 91.1L652 110.1L717.3 151.6Z" fill="#114389" stroke="#002b50"></path><path d="M747.3 91.1L689 34.5L652 110.1Z" fill="#002442" stroke="#002b50"></path><path d="M277.3 0L240 59.5L286.3 62.5Z" fill="#073d7b" stroke="#002b50"></path><path d="M237 107.1L170.8 165.6L237 169.6Z" fill="#002442" stroke="#002b50"></path><path d="M427 566.5L412.8 511.9L390.8 522.5Z" fill="#073d7b" stroke="#002b50"></path><path d="M620.8 567.5L652 550.5L633.8 497.9Z" fill="#00315e" stroke="#002b50"></path><path d="M696 453.4L744.3 419.4L661 398.8Z" fill="#01376c" stroke="#002b50"></path><path d="M735.3 366.8L792.5 323.3L719.3 341.3Z" fill="#294fa6" stroke="#002b50"></path><path d="M725.3 474.9L744.3 419.4L696 453.4Z" fill="#294fa6" stroke="#002b50"></path><path d="M788.5 161.6L747.3 91.1L717.3 151.6Z" fill="#021828" stroke="#002b50"></path><path d="M358.5 528.5L427 566.5L390.8 522.5Z" fill="#00315e" stroke="#002b50"></path><path d="M715.3 31.5L667 0L689 34.5Z" fill="#001e35" stroke="#002b50"></path><path d="M689 34.5L667 0L636.8 74.5Z" fill="#00101c" stroke="#002b50"></path><path d="M153.8 113.1L170.8 165.6L237 107.1Z" fill="#002442" stroke="#002b50"></path><path d="M184.8 199.2L125.5 233.2L177.8 251.7Z" fill="#01376c" stroke="#002b50"></path><path d="M344.5 0L277.3 0L286.3 62.5Z" fill="#021828" stroke="#002b50"></path><path d="M173.8 56.5L153.8 113.1L237 107.1Z" fill="#01376c" stroke="#002b50"></path><path d="M787.5 375.8L792.5 323.3L735.3 366.8Z" fill="#1d4998" stroke="#002b50"></path><path d="M801.5 213.2L788.5 161.6L716.3 200.2Z" fill="#021828" stroke="#002b50"></path><path d="M186.8 322.3L176.8 376.8L232 342.3Z" fill="#073d7b" stroke="#002b50"></path><path d="M218 398.8L205 438.4L291.3 425.4Z" fill="#01376c" stroke="#002b50"></path><path d="M107.5 339.3L176.8 376.8L186.8 322.3Z" fill="#021828" stroke="#002b50"></path><path d="M114.5 249.7L186.8 322.3L177.8 251.7Z" fill="#00315e" stroke="#002b50"></path><path d="M801.5 213.2L716.3 200.2L768.5 280.7Z" fill="#00101c" stroke="#002b50"></path><path d="M747.3 91.1L715.3 31.5L689 34.5Z" fill="#021828" stroke="#002b50"></path><path d="M781.5 73.5L715.3 31.5L747.3 91.1Z" fill="#294fa6" stroke="#002b50"></path><path d="M849.8 216.2L801.5 213.2L855.8 280.7Z" fill="#002442" stroke="#002b50"></path><path d="M171.8 437.4L205 438.4L218 398.8Z" fill="#002b50" stroke="#002b50"></path><path d="M287.3 485.9L296.3 541.5L348.5 501.9Z" fill="#1d4998" stroke="#002b50"></path><path d="M652 550.5L725.3 474.9L680 469.9Z" fill="#073d7b" stroke="#002b50"></path><path d="M680 469.9L725.3 474.9L696 453.4Z" fill="#1d4998" stroke="#002b50"></path><path d="M744.3 419.4L787.5 375.8L735.3 366.8Z" fill="#002b50" stroke="#002b50"></path><path d="M652 550.5L680 469.9L633.8 497.9Z" fill="#002b50" stroke="#002b50"></path><path d="M808.5 414.4L787.5 375.8L744.3 419.4Z" fill="#01376c" stroke="#002b50"></path><path d="M203 505.9L296.3 541.5L287.3 485.9Z" fill="#114389" stroke="#002b50"></path><path d="M412.8 600L433 600L427 566.5Z" fill="#002b50" stroke="#002b50"></path><path d="M620.8 567.5L633.8 497.9L569.5 523.5Z" fill="#1d4998" stroke="#002b50"></path><path d="M577.5 600L569.5 523.5L527.3 561.5Z" fill="#1d4998" stroke="#002b50"></path><path d="M577.5 600L620.8 567.5L569.5 523.5Z" fill="#114389" stroke="#002b50"></path><path d="M427 566.5L511.3 600L527.3 561.5Z" fill="#001e35" stroke="#002b50"></path><path d="M433 600L511.3 600L427 566.5Z" fill="#001e35" stroke="#002b50"></path><path d="M412.8 600L427 566.5L358.5 528.5Z" fill="#001e35" stroke="#002b50"></path><path d="M95.5 174.6L125.5 233.2L170.8 165.6Z" fill="#021828" stroke="#002b50"></path><path d="M170.8 165.6L125.5 233.2L184.8 199.2Z" fill="#001e35" stroke="#002b50"></path><path d="M336.5 600L412.8 600L358.5 528.5Z" fill="#1d4998" stroke="#002b50"></path><path d="M173.8 56.5L237 107.1L240 59.5Z" fill="#002442" stroke="#002b50"></path><path d="M801.5 107.1L747.3 91.1L788.5 161.6Z" fill="#021828" stroke="#002b50"></path><path d="M801.5 107.1L781.5 73.5L747.3 91.1Z" fill="#294fa6" stroke="#002b50"></path><path d="M715.3 31.5L732.3 0L667 0Z" fill="#002442" stroke="#002b50"></path><path d="M277.3 0L227 0L240 59.5Z" fill="#002442" stroke="#002b50"></path><path d="M176.8 376.8L171.8 437.4L218 398.8Z" fill="#00315e" stroke="#002b50"></path><path d="M205 438.4L203 505.9L287.3 485.9Z" fill="#114389" stroke="#002b50"></path><path d="M100.5 383.8L171.8 437.4L176.8 376.8Z" fill="#00101c" stroke="#002b50"></path><path d="M849.8 166.6L801.5 107.1L788.5 161.6Z" fill="#002b50" stroke="#002b50"></path><path d="M767.5 0L732.3 0L715.3 31.5Z" fill="#002442" stroke="#002b50"></path><path d="M511.3 600L577.5 600L527.3 561.5Z" fill="#002442" stroke="#002b50"></path><path d="M620.8 567.5L631.8 600L652 550.5Z" fill="#1d4998" stroke="#002b50"></path><path d="M227 0L173.8 56.5L240 59.5Z" fill="#021828" stroke="#002b50"></path><path d="M59.3 213.2L114.5 249.7L125.5 233.2Z" fill="#002b50" stroke="#002b50"></path><path d="M125.5 233.2L114.5 249.7L177.8 251.7Z" fill="#00315e" stroke="#002b50"></path><path d="M785.5 483.9L808.5 414.4L744.3 419.4Z" fill="#002442" stroke="#002b50"></path><path d="M864.8 330.3L855.8 280.7L792.5 323.3Z" fill="#001e35" stroke="#002b50"></path><path d="M855.8 280.7L801.5 213.2L768.5 280.7Z" fill="#01376c" stroke="#002b50"></path><path d="M801.5 213.2L849.8 166.6L788.5 161.6Z" fill="#002442" stroke="#002b50"></path><path d="M785.5 483.9L744.3 419.4L725.3 474.9Z" fill="#001e35" stroke="#002b50"></path><path d="M161.8 485.9L203 505.9L205 438.4Z" fill="#00101c" stroke="#002b50"></path><path d="M296.3 541.5L336.5 600L358.5 528.5Z" fill="#1d4998" stroke="#002b50"></path><path d="M268.3 600L336.5 600L296.3 541.5Z" fill="#01376c" stroke="#002b50"></path><path d="M855.8 280.7L768.5 280.7L792.5 323.3Z" fill="#294fa6" stroke="#002b50"></path><path d="M173.8 56.5L127.5 111.1L153.8 113.1Z" fill="#1d4998" stroke="#002b50"></path><path d="M153.8 113.1L127.5 111.1L170.8 165.6Z" fill="#00101c" stroke="#002b50"></path><path d="M114.5 249.7L107.5 339.3L186.8 322.3Z" fill="#021828" stroke="#002b50"></path><path d="M171.8 437.4L161.8 485.9L205 438.4Z" fill="#01376c" stroke="#002b50"></path><path d="M577.5 600L631.8 600L620.8 567.5Z" fill="#021828" stroke="#002b50"></path><path d="M780.5 548.5L785.5 483.9L725.3 474.9Z" fill="#001e35" stroke="#002b50"></path><path d="M847.8 377.8L792.5 323.3L787.5 375.8Z" fill="#002442" stroke="#002b50"></path><path d="M842.8 53.5L767.5 0L781.5 73.5Z" fill="#1d4998" stroke="#002b50"></path><path d="M781.5 73.5L767.5 0L715.3 31.5Z" fill="#114389" stroke="#002b50"></path><path d="M849.8 216.2L849.8 166.6L801.5 213.2Z" fill="#021828" stroke="#002b50"></path><path d="M900 219.2L849.8 166.6L849.8 216.2Z" fill="#002b50" stroke="#002b50"></path><path d="M752.3 560.5L725.3 474.9L652 550.5Z" fill="#00101c" stroke="#002b50"></path><path d="M808.5 414.4L847.8 377.8L787.5 375.8Z" fill="#073d7b" stroke="#002b50"></path><path d="M835.8 95.1L781.5 73.5L801.5 107.1Z" fill="#00315e" stroke="#002b50"></path><path d="M227 0L184.8 0L173.8 56.5Z" fill="#01376c" stroke="#002b50"></path><path d="M173.8 56.5L118.5 35.5L127.5 111.1Z" fill="#1d4998" stroke="#002b50"></path><path d="M127.5 111.1L95.5 174.6L170.8 165.6Z" fill="#01376c" stroke="#002b50"></path><path d="M114.5 249.7L57.3 284.7L107.5 339.3Z" fill="#00101c" stroke="#002b50"></path><path d="M860.8 420.4L847.8 377.8L808.5 414.4Z" fill="#00101c" stroke="#002b50"></path><path d="M127.5 485.9L161.8 485.9L171.8 437.4Z" fill="#002b50" stroke="#002b50"></path><path d="M203 505.9L202 534.5L296.3 541.5Z" fill="#021828" stroke="#002b50"></path><path d="M631.8 600L661 600L652 550.5Z" fill="#294fa6" stroke="#002b50"></path><path d="M849.8 166.6L835.8 95.1L801.5 107.1Z" fill="#294fa6" stroke="#002b50"></path><path d="M161.8 485.9L202 534.5L203 505.9Z" fill="#001e35" stroke="#002b50"></path><path d="M847.8 377.8L864.8 330.3L792.5 323.3Z" fill="#294fa6" stroke="#002b50"></path><path d="M855.8 280.7L900 255.7L849.8 216.2Z" fill="#00315e" stroke="#002b50"></path><path d="M48.3 394.8L100.5 383.8L107.5 339.3Z" fill="#00101c" stroke="#002b50"></path><path d="M107.5 339.3L100.5 383.8L176.8 376.8Z" fill="#002442" stroke="#002b50"></path><path d="M202 534.5L268.3 600L296.3 541.5Z" fill="#001e35" stroke="#002b50"></path><path d="M127.5 111.1L75.3 161.6L95.5 174.6Z" fill="#00101c" stroke="#002b50"></path><path d="M95.5 174.6L59.3 213.2L125.5 233.2Z" fill="#01376c" stroke="#002b50"></path><path d="M67.3 122.1L75.3 161.6L127.5 111.1Z" fill="#001e35" stroke="#002b50"></path><path d="M661 600L752.3 560.5L652 550.5Z" fill="#002442" stroke="#002b50"></path><path d="M848.8 484.9L860.8 420.4L808.5 414.4Z" fill="#001e35" stroke="#002b50"></path><path d="M161.8 485.9L146.8 550.5L202 534.5Z" fill="#00101c" stroke="#002b50"></path><path d="M100.5 383.8L99.5 431.4L171.8 437.4Z" fill="#1d4998" stroke="#002b50"></path><path d="M76.3 429.4L99.5 431.4L100.5 383.8Z" fill="#00101c" stroke="#002b50"></path><path d="M900 110.1L835.8 95.1L849.8 166.6Z" fill="#002442" stroke="#002b50"></path><path d="M900 110.1L842.8 53.5L835.8 95.1Z" fill="#294fa6" stroke="#002b50"></path><path d="M835.8 95.1L842.8 53.5L781.5 73.5Z" fill="#114389" stroke="#002b50"></path><path d="M900 375.8L900 336.3L864.8 330.3Z" fill="#1d4998" stroke="#002b50"></path><path d="M848.8 484.9L808.5 414.4L785.5 483.9Z" fill="#002b50" stroke="#002b50"></path><path d="M99.5 431.4L127.5 485.9L171.8 437.4Z" fill="#1d4998" stroke="#002b50"></path><path d="M202 534.5L226 600L268.3 600Z" fill="#002b50" stroke="#002b50"></path><path d="M184.8 0L118.5 35.5L173.8 56.5Z" fill="#002b50" stroke="#002b50"></path><path d="M75.3 161.6L59.3 213.2L95.5 174.6Z" fill="#001e35" stroke="#002b50"></path><path d="M59.3 213.2L57.3 284.7L114.5 249.7Z" fill="#073d7b" stroke="#002b50"></path><path d="M900 336.3L855.8 280.7L864.8 330.3Z" fill="#002b50" stroke="#002b50"></path><path d="M900 336.3L900 255.7L855.8 280.7Z" fill="#1d4998" stroke="#002b50"></path><path d="M782.5 600L780.5 548.5L752.3 560.5Z" fill="#01376c" stroke="#002b50"></path><path d="M752.3 560.5L780.5 548.5L725.3 474.9Z" fill="#294fa6" stroke="#002b50"></path><path d="M900 255.7L900 219.2L849.8 216.2Z" fill="#002442" stroke="#002b50"></path><path d="M185.8 600L226 600L202 534.5Z" fill="#00315e" stroke="#002b50"></path><path d="M0 166.6L0 219.2L59.3 213.2Z" fill="#01376c" stroke="#002b50"></path><path d="M118.5 35.5L67.3 122.1L127.5 111.1Z" fill="#002b50" stroke="#002b50"></path><path d="M900 375.8L864.8 330.3L847.8 377.8Z" fill="#1d4998" stroke="#002b50"></path><path d="M900 219.2L900 144.6L849.8 166.6Z" fill="#01376c" stroke="#002b50"></path><path d="M99.5 431.4L70.3 501.9L127.5 485.9Z" fill="#00101c" stroke="#002b50"></path><path d="M127.5 485.9L146.8 550.5L161.8 485.9Z" fill="#114389" stroke="#002b50"></path><path d="M48.3 394.8L76.3 429.4L100.5 383.8Z" fill="#00101c" stroke="#002b50"></path><path d="M837.8 547.5L848.8 484.9L785.5 483.9Z" fill="#021828" stroke="#002b50"></path><path d="M860.8 420.4L900 375.8L847.8 377.8Z" fill="#1d4998" stroke="#002b50"></path><path d="M661 600L745.3 600L752.3 560.5Z" fill="#01376c" stroke="#002b50"></path><path d="M780.5 548.5L837.8 547.5L785.5 483.9Z" fill="#021828" stroke="#002b50"></path><path d="M900 452.4L900 375.8L860.8 420.4Z" fill="#002442" stroke="#002b50"></path><path d="M105.5 522.5L146.8 550.5L127.5 485.9Z" fill="#073d7b" stroke="#002b50"></path><path d="M0 294.7L36.3 315.3L57.3 284.7Z" fill="#01376c" stroke="#002b50"></path><path d="M57.3 284.7L36.3 315.3L107.5 339.3Z" fill="#294fa6" stroke="#002b50"></path><path d="M0 219.2L57.3 284.7L59.3 213.2Z" fill="#01376c" stroke="#002b50"></path><path d="M900 144.6L900 110.1L849.8 166.6Z" fill="#1d4998" stroke="#002b50"></path><path d="M36.3 315.3L48.3 394.8L107.5 339.3Z" fill="#021828" stroke="#002b50"></path><path d="M70.3 501.9L105.5 522.5L127.5 485.9Z" fill="#002b50" stroke="#002b50"></path><path d="M146.8 550.5L185.8 600L202 534.5Z" fill="#001e35" stroke="#002b50"></path><path d="M842.8 53.5L856.8 0L767.5 0Z" fill="#114389" stroke="#002b50"></path><path d="M900 44.5L856.8 0L842.8 53.5Z" fill="#002442" stroke="#002b50"></path><path d="M70.3 501.9L99.5 431.4L76.3 429.4Z" fill="#002442" stroke="#002b50"></path><path d="M146.8 550.5L98.5 600L185.8 600Z" fill="#01376c" stroke="#002b50"></path><path d="M184.8 0L92.5 0L118.5 35.5Z" fill="#01376c" stroke="#002b50"></path><path d="M118.5 35.5L38.3 76.5L67.3 122.1Z" fill="#002442" stroke="#002b50"></path><path d="M745.3 600L782.5 600L752.3 560.5Z" fill="#002442" stroke="#002b50"></path><path d="M782.5 600L837.8 547.5L780.5 548.5Z" fill="#294fa6" stroke="#002b50"></path><path d="M848.8 484.9L900 452.4L860.8 420.4Z" fill="#002442" stroke="#002b50"></path><path d="M900 480.9L900 452.4L848.8 484.9Z" fill="#002442" stroke="#002b50"></path><path d="M900 110.1L900 44.5L842.8 53.5Z" fill="#114389" stroke="#002b50"></path><path d="M66.3 0L38.3 76.5L118.5 35.5Z" fill="#00315e" stroke="#002b50"></path><path d="M0 166.6L59.3 213.2L75.3 161.6Z" fill="#00315e" stroke="#002b50"></path><path d="M0 468.9L70.3 501.9L76.3 429.4Z" fill="#114389" stroke="#002b50"></path><path d="M105.5 522.5L98.5 600L146.8 550.5Z" fill="#002b50" stroke="#002b50"></path><path d="M0 166.6L75.3 161.6L67.3 122.1Z" fill="#073d7b" stroke="#002b50"></path><path d="M36.3 315.3L0 399.8L48.3 394.8Z" fill="#001e35" stroke="#002b50"></path><path d="M48.3 394.8L0 448.4L76.3 429.4Z" fill="#294fa6" stroke="#002b50"></path><path d="M0 219.2L0 294.7L57.3 284.7Z" fill="#001e35" stroke="#002b50"></path><path d="M0 294.7L0 310.3L36.3 315.3Z" fill="#1d4998" stroke="#002b50"></path><path d="M900 533.5L900 480.9L848.8 484.9Z" fill="#021828" stroke="#002b50"></path><path d="M92.5 0L66.3 0L118.5 35.5Z" fill="#001e35" stroke="#002b50"></path><path d="M0 114.1L0 166.6L67.3 122.1Z" fill="#073d7b" stroke="#002b50"></path><path d="M0 114.1L67.3 122.1L38.3 76.5Z" fill="#073d7b" stroke="#002b50"></path><path d="M900 44.5L900 0L856.8 0Z" fill="#114389" stroke="#002b50"></path><path d="M0 42.5L0 114.1L38.3 76.5Z" fill="#01376c" stroke="#002b50"></path><path d="M0 310.3L0 399.8L36.3 315.3Z" fill="#021828" stroke="#002b50"></path><path d="M837.8 547.5L900 533.5L848.8 484.9Z" fill="#073d7b" stroke="#002b50"></path><path d="M849.8 600L900 533.5L837.8 547.5Z" fill="#00315e" stroke="#002b50"></path><path d="M782.5 600L849.8 600L837.8 547.5Z" fill="#002442" stroke="#002b50"></path><path d="M42.3 553.5L105.5 522.5L70.3 501.9Z" fill="#1d4998" stroke="#002b50"></path><path d="M78.3 600L98.5 600L105.5 522.5Z" fill="#00315e" stroke="#002b50"></path><path d="M0 399.8L0 448.4L48.3 394.8Z" fill="#01376c" stroke="#002b50"></path><path d="M66.3 0L0 42.5L38.3 76.5Z" fill="#002b50" stroke="#002b50"></path><path d="M0 448.4L0 468.9L76.3 429.4Z" fill="#01376c" stroke="#002b50"></path><path d="M0 538.5L42.3 553.5L70.3 501.9Z" fill="#00101c" stroke="#002b50"></path><path d="M42.3 553.5L78.3 600L105.5 522.5Z" fill="#1d4998" stroke="#002b50"></path><path d="M66.3 0L0 0L0 42.5Z" fill="#021828" stroke="#002b50"></path><path d="M849.8 600L900 600L900 533.5Z" fill="#001e35" stroke="#002b50"></path><path d="M0 468.9L0 538.5L70.3 501.9Z" fill="#01376c" stroke="#002b50"></path><path d="M42.3 553.5L0 600L78.3 600Z" fill="#114389" stroke="#002b50"></path><path d="M0 538.5L0 600L42.3 553.5Z" fill="#021828" stroke="#002b50"></path></g></svg>